<svg width="18" height="18" viewBox="0 0 18 18" fill="none" xmlns="http://www.w3.org/2000/svg">
<circle cx="9" cy="9" r="9" fill="#6900C6"/>
<path d="M9.19306 8.59119C8.06921 8.29909 7.7078 7.99708 7.7078 7.52675C7.7078 6.9871 8.20784 6.61084 9.04454 6.61084C9.9258 6.61084 10.2526 7.03166 10.2823 7.65052H11.3764C11.3417 6.79897 10.8219 6.01673 9.78717 5.76424V4.67999H8.30191V5.74938C7.34143 5.95732 6.5691 6.58113 6.5691 7.53665C6.5691 8.68031 7.51472 9.24966 8.89601 9.58137C10.1337 9.87842 10.3813 10.3141 10.3813 10.7745C10.3813 11.1161 10.1387 11.6607 9.04454 11.6607C8.02466 11.6607 7.62363 11.2053 7.56918 10.6211H6.47998C6.53939 11.7053 7.35134 12.3143 8.30191 12.5172V13.5916H9.78717V12.5271C10.7526 12.344 11.52 11.7845 11.52 10.7696C11.52 9.36353 10.3169 8.88329 9.19306 8.59119Z" fill="#F3F0FF"/>
</svg>
