<svg width="18" height="18" viewBox="0 0 18 18" fill="none" xmlns="http://www.w3.org/2000/svg">
<circle cx="9" cy="9" r="9" fill="#6900C6"/>
<path d="M7.56002 7.17749V6.50249C7.56002 6.39112 7.65115 6.29999 7.76252 6.29999H8.43752C8.5489 6.29999 8.64002 6.39112 8.64002 6.50249V7.17749C8.64002 7.28887 8.5489 7.37999 8.43752 7.37999H7.76252C7.65115 7.37999 7.56002 7.28887 7.56002 7.17749ZM9.92252 7.37999H10.5975C10.7089 7.37999 10.8 7.28887 10.8 7.17749V6.50249C10.8 6.39112 10.7089 6.29999 10.5975 6.29999H9.92252C9.81115 6.29999 9.72002 6.39112 9.72002 6.50249V7.17749C9.72002 7.28887 9.81115 7.37999 9.92252 7.37999ZM7.76252 8.99999H8.43752C8.5489 8.99999 8.64002 8.90887 8.64002 8.79749V8.12249C8.64002 8.01112 8.5489 7.91999 8.43752 7.91999H7.76252C7.65115 7.91999 7.56002 8.01112 7.56002 8.12249V8.79749C7.56002 8.90887 7.65115 8.99999 7.76252 8.99999ZM9.92252 8.99999H10.5975C10.7089 8.99999 10.8 8.90887 10.8 8.79749V8.12249C10.8 8.01112 10.7089 7.91999 10.5975 7.91999H9.92252C9.81115 7.91999 9.72002 8.01112 9.72002 8.12249V8.79749C9.72002 8.90887 9.81115 8.99999 9.92252 8.99999ZM8.64002 10.4175V9.74249C8.64002 9.63112 8.5489 9.53999 8.43752 9.53999H7.76252C7.65115 9.53999 7.56002 9.63112 7.56002 9.74249V10.4175C7.56002 10.5289 7.65115 10.62 7.76252 10.62H8.43752C8.5489 10.62 8.64002 10.5289 8.64002 10.4175ZM9.92252 10.62H10.5975C10.7089 10.62 10.8 10.5289 10.8 10.4175V9.74249C10.8 9.63112 10.7089 9.53999 10.5975 9.53999H9.92252C9.81115 9.53999 9.72002 9.63112 9.72002 9.74249V10.4175C9.72002 10.5289 9.81115 10.62 9.92252 10.62ZM12.96 12.7125V13.32H5.40002V12.7125C5.40002 12.6011 5.49115 12.51 5.60252 12.51H5.93159V5.08499C5.93159 4.86056 6.11215 4.67999 6.33659 4.67999H12.0235C12.2479 4.67999 12.4285 4.86056 12.4285 5.08499V12.51H12.7575C12.8689 12.51 12.96 12.6011 12.96 12.7125ZM6.74159 12.4931H8.64002V11.3625C8.64002 11.2511 8.73115 11.16 8.84252 11.16H9.51752C9.6289 11.16 9.72002 11.2511 9.72002 11.3625V12.4931H11.6185V5.50687L6.75002 5.48999L6.74159 12.4931Z" fill="#F3F0FF"/>
</svg>
