<svg width="18" height="18" viewBox="0 0 18 18" fill="none" xmlns="http://www.w3.org/2000/svg">
<circle cx="9" cy="9" r="9" fill="#6900C6"/>
<path d="M7.68004 8.63999H6.80004V9.51999H7.68004V8.63999ZM9.44004 8.63999H8.56004V9.51999H9.44004V8.63999ZM11.2 8.63999H10.32V9.51999H11.2V8.63999ZM12.08 5.55999H11.64V4.67999H10.76V5.55999H7.24004V4.67999H6.36004V5.55999H5.92004C5.43164 5.55999 5.04444 5.95599 5.04444 6.43999L5.04004 12.6C5.04004 12.8334 5.13275 13.0572 5.29779 13.2222C5.46282 13.3873 5.68665 13.48 5.92004 13.48H12.08C12.564 13.48 12.96 13.084 12.96 12.6V6.43999C12.96 5.95599 12.564 5.55999 12.08 5.55999ZM12.08 12.6H5.92004V7.75999H12.08V12.6Z" fill="#F3F0FF"/>
</svg>
