<svg width="50" height="50" viewBox="0 0 50 50" fill="none" xmlns="http://www.w3.org/2000/svg">
<circle cx="25" cy="25" r="25" fill="#6900C6"/>
<path d="M35 32V22C35 21.4696 34.7893 20.9609 34.4142 20.5858C34.0391 20.2107 33.5304 20 33 20H26.236C25.8645 20 25.5004 19.8965 25.1844 19.7012C24.8684 19.5058 24.6131 19.2263 24.447 18.894L23.553 17.106C23.3869 16.7735 23.1314 16.4939 22.8152 16.2986C22.499 16.1032 22.1347 15.9998 21.763 16H17C16.4696 16 15.9609 16.2107 15.5858 16.5858C15.2107 16.9609 15 17.4696 15 18V32C15 32.5304 15.2107 33.0391 15.5858 33.4142C15.9609 33.7893 16.4696 34 17 34H33C33.5304 34 34.0391 33.7893 34.4142 33.4142C34.7893 33.0391 35 32.5304 35 32Z" fill="#F3F0FF" stroke="#F3F0FF" stroke-width="2" stroke-linecap="round" stroke-linejoin="round"/>
</svg>
