<svg width="167" height="42" viewBox="0 0 167 42" fill="none" xmlns="http://www.w3.org/2000/svg">
<path d="M45.6329 27.5691H38.3837L37.2216 31H32.2689L39.2968 11.5765H44.7752L51.8031 31H46.795L45.6329 27.5691ZM44.4155 23.9168L42.0083 16.8059L39.6288 23.9168H44.4155ZM63.3494 15.3948C65.1571 15.3948 66.5959 15.9851 67.6657 17.1656C68.754 18.3277 69.2982 19.9325 69.2982 21.98V31H64.5945V22.6163C64.5945 21.5834 64.327 20.781 63.7921 20.2092C63.2572 19.6373 62.5378 19.3514 61.6339 19.3514C60.7301 19.3514 60.0107 19.6373 59.4758 20.2092C58.9408 20.781 58.6734 21.5834 58.6734 22.6163V31H53.942V15.5608H58.6734V17.6083C59.153 16.9258 59.7986 16.3909 60.6102 16.0035C61.4218 15.5977 62.3349 15.3948 63.3494 15.3948ZM71.6453 23.2527C71.6453 21.6664 71.9404 20.2737 72.5307 19.0747C73.1394 17.8758 73.9602 16.9535 74.9932 16.3079C76.0262 15.6622 77.179 15.3394 78.4518 15.3394C79.5401 15.3394 80.4901 15.5608 81.3017 16.0035C82.1318 16.4462 82.7681 17.0272 83.2108 17.7466V15.5608H87.9422V31H83.2108V28.8142C82.7497 29.5336 82.1041 30.1146 81.274 30.5573C80.4624 31 79.5124 31.2214 78.4241 31.2214C77.1698 31.2214 76.0262 30.8985 74.9932 30.2529C73.9602 29.5889 73.1394 28.6574 72.5307 27.4584C71.9404 26.241 71.6453 24.8391 71.6453 23.2527ZM83.2108 23.2804C83.2108 22.0999 82.8788 21.1683 82.2148 20.4858C81.5692 19.8033 80.776 19.4621 79.8353 19.4621C78.8945 19.4621 78.0921 19.8033 77.4281 20.4858C76.7825 21.1499 76.4597 22.0722 76.4597 23.2527C76.4597 24.4333 76.7825 25.374 77.4281 26.0749C78.0921 26.7574 78.8945 27.0987 79.8353 27.0987C80.776 27.0987 81.5692 26.7574 82.2148 26.0749C82.8788 25.3925 83.2108 24.4609 83.2108 23.2804ZM96.0965 10.5251V31H91.3652V10.5251H96.0965ZM115.297 15.5608L105.612 38.3322H100.521L104.063 30.4743L97.7822 15.5608H103.067L106.636 25.2172L110.178 15.5608H115.297ZM125.612 26.988V31H123.205C121.49 31 120.152 30.585 119.193 29.7549C118.234 28.9064 117.755 27.5322 117.755 25.6322V19.4898H115.873V15.5608H117.755V11.7978H122.486V15.5608H125.585V19.4898H122.486V25.6876C122.486 26.1487 122.597 26.4808 122.818 26.6837C123.039 26.8866 123.408 26.988 123.925 26.988H125.612ZM130.627 13.956C129.797 13.956 129.115 13.7162 128.58 13.2366C128.063 12.7386 127.805 12.1299 127.805 11.4105C127.805 10.6726 128.063 10.0639 128.58 9.58433C129.115 9.08629 129.797 8.83727 130.627 8.83727C131.439 8.83727 132.103 9.08629 132.62 9.58433C133.155 10.0639 133.422 10.6726 133.422 11.4105C133.422 12.1299 133.155 12.7386 132.62 13.2366C132.103 13.7162 131.439 13.956 130.627 13.956ZM132.979 15.5608V31H128.248V15.5608H132.979ZM135.467 23.2804C135.467 21.6756 135.79 20.2737 136.436 19.0747C137.1 17.8758 138.013 16.9535 139.175 16.3079C140.355 15.6622 141.702 15.3394 143.215 15.3394C145.151 15.3394 146.765 15.8467 148.057 16.8612C149.366 17.8758 150.224 19.3053 150.63 21.1499H145.594C145.17 19.9694 144.349 19.3791 143.132 19.3791C142.265 19.3791 141.573 19.7203 141.056 20.4028C140.54 21.0669 140.282 22.0261 140.282 23.2804C140.282 24.5347 140.54 25.5031 141.056 26.1856C141.573 26.8497 142.265 27.1817 143.132 27.1817C144.349 27.1817 145.17 26.5914 145.594 25.4109H150.63C150.224 27.2186 149.366 28.6389 148.057 29.6719C146.747 30.7049 145.133 31.2214 143.215 31.2214C141.702 31.2214 140.355 30.8985 139.175 30.2529C138.013 29.6073 137.1 28.685 136.436 27.4861C135.79 26.2871 135.467 24.8852 135.467 23.2804ZM159.441 31.2214C158.095 31.2214 156.896 30.9908 155.845 30.5296C154.793 30.0685 153.963 29.4413 153.354 28.6482C152.746 27.8365 152.404 26.9327 152.331 25.9366H157.007C157.062 26.4715 157.311 26.905 157.754 27.237C158.196 27.5691 158.741 27.7351 159.386 27.7351C159.976 27.7351 160.428 27.6244 160.742 27.4031C161.074 27.1633 161.24 26.8589 161.24 26.49C161.24 26.0473 161.009 25.7245 160.548 25.5216C160.087 25.3002 159.34 25.0604 158.307 24.8022C157.2 24.5439 156.278 24.2765 155.54 23.9998C154.802 23.7047 154.166 23.2527 153.631 22.644C153.096 22.0169 152.829 21.1776 152.829 20.1262C152.829 19.2408 153.068 18.4384 153.548 17.719C154.046 16.9811 154.765 16.4001 155.706 15.9758C156.665 15.5516 157.8 15.3394 159.109 15.3394C161.046 15.3394 162.568 15.819 163.675 16.7782C164.8 17.7374 165.446 19.0102 165.612 20.5965H161.24C161.166 20.0616 160.926 19.6373 160.521 19.3238C160.133 19.0102 159.617 18.8534 158.971 18.8534C158.418 18.8534 157.993 18.9641 157.698 19.1854C157.403 19.3883 157.256 19.6742 157.256 20.0431C157.256 20.4858 157.486 20.8179 157.947 21.0392C158.427 21.2606 159.165 21.4819 160.161 21.7033C161.305 21.9984 162.236 22.2935 162.955 22.5887C163.675 22.8654 164.302 23.3265 164.837 23.9721C165.39 24.5993 165.676 25.4478 165.695 26.5177C165.695 27.4215 165.436 28.2331 164.92 28.9525C164.422 29.6535 163.693 30.2068 162.734 30.6126C161.793 31.0184 160.696 31.2214 159.441 31.2214Z" fill="#6900C6"/>
<path d="M10.584 18.0987C11.2435 20.5598 12.7658 22.5564 14.7332 23.8741L11.3249 26.7878C11.3249 26.7878 11.1151 27.2554 10.7372 27.9223C10.3753 28.5983 9.88033 29.4925 9.3468 30.3656L7.91174 32.782L7.23595 33.8668L10.9899 36.0344L11.5914 34.9067L12.9663 32.4556C13.4173 31.6339 13.891 30.825 14.3868 30.0296C14.7753 29.3689 15.0754 28.9533 15.0754 28.9533L15.8942 24.5445C18.0892 25.6342 20.6062 25.886 22.9734 25.2526C28.36 23.8092 31.5695 18.2496 30.126 12.8624C28.6825 7.47526 23.1232 4.26521 17.7366 5.70855C12.35 7.15189 9.14052 12.7115 10.584 18.0987Z" fill="#DA009A"/>
<path d="M9.68435 16.8447C10.3438 19.3058 11.8662 21.3024 13.8335 22.6201L10.4252 25.5338C10.4252 25.5338 10.2154 26.0014 9.83758 26.6683C9.47565 27.3443 8.98068 28.2385 8.44714 29.1116L7.01208 31.528L6.33629 32.6128L10.0903 34.7804L10.6917 33.6527L12.0666 31.2016C12.5176 30.38 12.9913 29.571 13.4871 28.7756C13.8756 28.1149 14.1757 27.6993 14.1757 27.6993L14.9946 23.2905C17.1896 24.3802 19.7065 24.632 22.0737 23.9986C27.4603 22.5552 30.6698 16.9956 29.2263 11.6084C27.7828 6.22126 22.2235 3.01122 16.8369 4.45455C11.4503 5.89789 8.24086 11.4575 9.68435 16.8447Z" fill="#6900C6"/>
</svg>
