<svg width="109" height="27" viewBox="0 0 109 27" fill="none" xmlns="http://www.w3.org/2000/svg">
<path d="M29.6866 17.768H24.9706L24.2146 20H20.9926L25.5646 7.364H29.1286L33.7006 20H30.4426L29.6866 17.768ZM28.8946 15.392L27.3286 10.766L25.7806 15.392H28.8946ZM41.2121 9.848C42.3881 9.848 43.3241 10.232 44.0201 11C44.7281 11.756 45.0821 12.8 45.0821 14.132V20H42.0221V14.546C42.0221 13.874 41.8481 13.352 41.5001 12.98C41.1521 12.608 40.6841 12.422 40.0961 12.422C39.5081 12.422 39.0401 12.608 38.6921 12.98C38.3441 13.352 38.1701 13.874 38.1701 14.546V20H35.0921V9.956H38.1701V11.288C38.4821 10.844 38.9021 10.496 39.4301 10.244C39.9581 9.98 40.5521 9.848 41.2121 9.848ZM46.609 14.96C46.609 13.928 46.801 13.022 47.185 12.242C47.581 11.462 48.115 10.862 48.787 10.442C49.459 10.022 50.209 9.812 51.037 9.812C51.745 9.812 52.363 9.956 52.891 10.244C53.431 10.532 53.845 10.91 54.133 11.378V9.956H57.211V20H54.133V18.578C53.833 19.046 53.413 19.424 52.873 19.712C52.345 20 51.727 20.144 51.019 20.144C50.203 20.144 49.459 19.934 48.787 19.514C48.115 19.082 47.581 18.476 47.185 17.696C46.801 16.904 46.609 15.992 46.609 14.96ZM54.133 14.978C54.133 14.21 53.917 13.604 53.485 13.16C53.065 12.716 52.549 12.494 51.937 12.494C51.325 12.494 50.803 12.716 50.371 13.16C49.951 13.592 49.741 14.192 49.741 14.96C49.741 15.728 49.951 16.34 50.371 16.796C50.803 17.24 51.325 17.462 51.937 17.462C52.549 17.462 53.065 17.24 53.485 16.796C53.917 16.352 54.133 15.746 54.133 14.978ZM62.5158 6.68V20H59.4378V6.68H62.5158ZM75.0064 9.956L68.7064 24.77H65.3944L67.6984 19.658L63.6124 9.956H67.0504L69.3724 16.238L71.6764 9.956H75.0064ZM81.7174 17.39V20H80.1514C79.0354 20 78.1654 19.73 77.5414 19.19C76.9174 18.638 76.6054 17.744 76.6054 16.508V12.512H75.3814V9.956H76.6054V7.508H79.6834V9.956H81.6994V12.512H79.6834V16.544C79.6834 16.844 79.7554 17.06 79.8994 17.192C80.0434 17.324 80.2834 17.39 80.6194 17.39H81.7174ZM84.9799 8.912C84.4399 8.912 83.9959 8.756 83.6479 8.444C83.3119 8.12 83.1439 7.724 83.1439 7.256C83.1439 6.776 83.3119 6.38 83.6479 6.068C83.9959 5.744 84.4399 5.582 84.9799 5.582C85.5079 5.582 85.9399 5.744 86.2759 6.068C86.6239 6.38 86.7979 6.776 86.7979 7.256C86.7979 7.724 86.6239 8.12 86.2759 8.444C85.9399 8.756 85.5079 8.912 84.9799 8.912ZM86.5099 9.956V20H83.4319V9.956H86.5099ZM88.1285 14.978C88.1285 13.934 88.3385 13.022 88.7585 12.242C89.1905 11.462 89.7845 10.862 90.5405 10.442C91.3085 10.022 92.1845 9.812 93.1685 9.812C94.4285 9.812 95.4785 10.142 96.3185 10.802C97.1705 11.462 97.7285 12.392 97.9925 13.592H94.7165C94.4405 12.824 93.9065 12.44 93.1145 12.44C92.5505 12.44 92.1005 12.662 91.7645 13.106C91.4285 13.538 91.2605 14.162 91.2605 14.978C91.2605 15.794 91.4285 16.424 91.7645 16.868C92.1005 17.3 92.5505 17.516 93.1145 17.516C93.9065 17.516 94.4405 17.132 94.7165 16.364H97.9925C97.7285 17.54 97.1705 18.464 96.3185 19.136C95.4665 19.808 94.4165 20.144 93.1685 20.144C92.1845 20.144 91.3085 19.934 90.5405 19.514C89.7845 19.094 89.1905 18.494 88.7585 17.714C88.3385 16.934 88.1285 16.022 88.1285 14.978ZM103.725 20.144C102.849 20.144 102.069 19.994 101.385 19.694C100.701 19.394 100.161 18.986 99.765 18.47C99.369 17.942 99.147 17.354 99.099 16.706H102.141C102.177 17.054 102.339 17.336 102.627 17.552C102.915 17.768 103.269 17.876 103.689 17.876C104.073 17.876 104.367 17.804 104.571 17.66C104.787 17.504 104.895 17.306 104.895 17.066C104.895 16.778 104.745 16.568 104.445 16.436C104.145 16.292 103.659 16.136 102.987 15.968C102.267 15.8 101.667 15.626 101.187 15.446C100.707 15.254 100.293 14.96 99.945 14.564C99.597 14.156 99.423 13.61 99.423 12.926C99.423 12.35 99.579 11.828 99.891 11.36C100.215 10.88 100.683 10.502 101.295 10.226C101.919 9.95 102.657 9.812 103.509 9.812C104.769 9.812 105.759 10.124 106.479 10.748C107.211 11.372 107.631 12.2 107.739 13.232H104.895C104.847 12.884 104.691 12.608 104.427 12.404C104.175 12.2 103.839 12.098 103.419 12.098C103.059 12.098 102.783 12.17 102.591 12.314C102.399 12.446 102.303 12.632 102.303 12.872C102.303 13.16 102.453 13.376 102.753 13.52C103.065 13.664 103.545 13.808 104.193 13.952C104.937 14.144 105.543 14.336 106.011 14.528C106.479 14.708 106.887 15.008 107.235 15.428C107.595 15.836 107.781 16.388 107.793 17.084C107.793 17.672 107.625 18.2 107.289 18.668C106.965 19.124 106.491 19.484 105.867 19.748C105.255 20.012 104.541 20.144 103.725 20.144Z" fill="#F3F0FF"/>
<path d="M6.88537 11.7741C7.31438 13.3752 8.30477 14.6741 9.58462 15.5313L7.36736 17.4268C7.36736 17.4268 7.23087 17.7311 6.98505 18.1649C6.7496 18.6047 6.42759 19.1864 6.0805 19.7544L5.14692 21.3264L4.70728 22.0321L7.14944 23.4423L7.54072 22.7086L8.43515 21.114C8.72857 20.5795 9.03673 20.0532 9.35928 19.5358C9.61201 19.106 9.80722 18.8356 9.80722 18.8356L10.34 15.9674C11.7679 16.6764 13.4053 16.8402 14.9453 16.4281C18.4496 15.4891 20.5375 11.8723 19.5984 8.36766C18.6594 4.86303 15.0428 2.77473 11.5385 3.71369C8.03423 4.65266 5.94631 8.26949 6.88537 11.7741Z" fill="#F3F0FF"/>
<path d="M6.3001 10.9584C6.72912 12.5595 7.7195 13.8583 8.99936 14.7155L6.7821 16.611C6.7821 16.611 6.64561 16.9153 6.39979 17.3491C6.16433 17.7889 5.84233 18.3706 5.49524 18.9386L4.56165 20.5106L4.12202 21.2163L6.56418 22.6265L6.95546 21.8928L7.84989 20.2982C8.1433 19.7637 8.45146 19.2375 8.77401 18.72C9.02674 18.2902 9.22195 18.0199 9.22195 18.0199L9.75469 15.1517C11.1826 15.8606 12.8201 16.0244 14.36 15.6123C17.8643 14.6734 19.9522 11.0565 19.0132 7.5519C18.0741 4.04727 14.4575 1.95896 10.9532 2.89793C7.44896 3.83689 5.36104 7.45372 6.3001 10.9584Z" fill="#00C8AA"/>
</svg>
