<svg width="18" height="18" viewBox="0 0 18 18" fill="none" xmlns="http://www.w3.org/2000/svg">
<circle cx="9" cy="9" r="9" fill="#6900C6"/>
<path d="M9.36004 8.99999C9.93291 8.99999 10.4823 8.77242 10.8874 8.36734C11.2925 7.96226 11.52 7.41286 11.52 6.83999C11.52 6.26713 11.2925 5.71772 10.8874 5.31264C10.4823 4.90756 9.93291 4.67999 9.36004 4.67999C8.78717 4.67999 8.23777 4.90756 7.83269 5.31264C7.42761 5.71772 7.20004 6.26713 7.20004 6.83999C7.20004 7.41286 7.42761 7.96226 7.83269 8.36734C8.23777 8.77242 8.78717 8.99999 9.36004 8.99999ZM10.8 6.83999C10.8 7.2219 10.6483 7.58817 10.3783 7.85823C10.1082 8.12828 9.74195 8.27999 9.36004 8.27999C8.97813 8.27999 8.61186 8.12828 8.34181 7.85823C8.07175 7.58817 7.92004 7.2219 7.92004 6.83999C7.92004 6.45808 8.07175 6.09181 8.34181 5.82176C8.61186 5.55171 8.97813 5.39999 9.36004 5.39999C9.74195 5.39999 10.1082 5.55171 10.3783 5.82176C10.6483 6.09181 10.8 6.45808 10.8 6.83999ZM13.68 12.6C13.68 13.32 12.96 13.32 12.96 13.32H5.76004C5.76004 13.32 5.04004 13.32 5.04004 12.6C5.04004 11.88 5.76004 9.71999 9.36004 9.71999C12.96 9.71999 13.68 11.88 13.68 12.6ZM12.96 12.5971C12.9593 12.42 12.8492 11.8872 12.361 11.399C11.8916 10.9296 11.0081 10.44 9.36004 10.44C7.71124 10.44 6.82852 10.9296 6.35908 11.399C5.87092 11.8872 5.76148 12.42 5.76004 12.5971H12.96Z" fill="#F3F0FF"/>
</svg>
